<svg xmlns="http://www.w3.org/2000/svg" viewBox="0 0 256 256">
  <defs>
    <radialGradient id="bg" cx="50%" cy="42%" r="62%">
      <stop offset="0%"  stop-color="#1d1b35"/>
      <stop offset="55%" stop-color="#0a0a14"/>
      <stop offset="100%" stop-color="#04040a"/>
    </radialGradient>
    <filter id="glow" x="-50%" y="-50%" width="200%" height="200%">
      <feGaussianBlur stdDeviation="3" result="b"/>
      <feMerge>
        <feMergeNode in="b"/>
        <feMergeNode in="SourceGraphic"/>
      </feMerge>
    </filter>
    <clipPath id="circ"><circle cx="128" cy="128" r="122"/></clipPath>
  </defs>

  <!-- Dark circular base. Anything outside this circle stays transparent. -->
  <circle cx="128" cy="128" r="122" fill="url(#bg)"/>

  <!-- Hex network — lines first, dots on top, all clipped to the circle. -->
  <g clip-path="url(#circ)">
    <g stroke="#3a3a4a" stroke-width="0.55" opacity="0.55" stroke-linecap="round">
      <line x1="73.00" y1="32.74" x2="95.00" y2="32.74"/>
      <line x1="73.00" y1="32.74" x2="84.00" y2="51.79"/>
      <line x1="73.00" y1="32.74" x2="62.00" y2="51.79"/>
      <line x1="95.00" y1="32.74" x2="117.00" y2="32.74"/>
      <line x1="95.00" y1="32.74" x2="106.00" y2="51.79"/>
      <line x1="95.00" y1="32.74" x2="84.00" y2="51.79"/>
      <line x1="117.00" y1="32.74" x2="139.00" y2="32.74"/>
      <line x1="117.00" y1="32.74" x2="128.00" y2="51.79"/>
      <line x1="117.00" y1="32.74" x2="106.00" y2="51.79"/>
      <line x1="139.00" y1="32.74" x2="161.00" y2="32.74"/>
      <line x1="139.00" y1="32.74" x2="150.00" y2="51.79"/>
      <line x1="139.00" y1="32.74" x2="128.00" y2="51.79"/>
      <line x1="161.00" y1="32.74" x2="183.00" y2="32.74"/>
      <line x1="161.00" y1="32.74" x2="172.00" y2="51.79"/>
      <line x1="161.00" y1="32.74" x2="150.00" y2="51.79"/>
      <line x1="183.00" y1="32.74" x2="194.00" y2="51.79"/>
      <line x1="183.00" y1="32.74" x2="172.00" y2="51.79"/>
      <line x1="62.00" y1="51.79" x2="84.00" y2="51.79"/>
      <line x1="62.00" y1="51.79" x2="73.00" y2="70.84"/>
      <line x1="62.00" y1="51.79" x2="51.00" y2="70.84"/>
      <line x1="84.00" y1="51.79" x2="106.00" y2="51.79"/>
      <line x1="84.00" y1="51.79" x2="95.00" y2="70.84"/>
      <line x1="84.00" y1="51.79" x2="73.00" y2="70.84"/>
      <line x1="106.00" y1="51.79" x2="128.00" y2="51.79"/>
      <line x1="106.00" y1="51.79" x2="117.00" y2="70.84"/>
      <line x1="106.00" y1="51.79" x2="95.00" y2="70.84"/>
      <line x1="128.00" y1="51.79" x2="150.00" y2="51.79"/>
      <line x1="128.00" y1="51.79" x2="139.00" y2="70.84"/>
      <line x1="128.00" y1="51.79" x2="117.00" y2="70.84"/>
      <line x1="150.00" y1="51.79" x2="172.00" y2="51.79"/>
      <line x1="150.00" y1="51.79" x2="161.00" y2="70.84"/>
      <line x1="150.00" y1="51.79" x2="139.00" y2="70.84"/>
      <line x1="172.00" y1="51.79" x2="194.00" y2="51.79"/>
      <line x1="172.00" y1="51.79" x2="183.00" y2="70.84"/>
      <line x1="172.00" y1="51.79" x2="161.00" y2="70.84"/>
      <line x1="194.00" y1="51.79" x2="205.00" y2="70.84"/>
      <line x1="194.00" y1="51.79" x2="183.00" y2="70.84"/>
      <line x1="51.00" y1="70.84" x2="73.00" y2="70.84"/>
      <line x1="51.00" y1="70.84" x2="62.00" y2="89.89"/>
      <line x1="51.00" y1="70.84" x2="40.00" y2="89.89"/>
      <line x1="73.00" y1="70.84" x2="95.00" y2="70.84"/>
      <line x1="73.00" y1="70.84" x2="84.00" y2="89.89"/>
      <line x1="73.00" y1="70.84" x2="62.00" y2="89.89"/>
      <line x1="95.00" y1="70.84" x2="117.00" y2="70.84"/>
      <line x1="95.00" y1="70.84" x2="106.00" y2="89.89"/>
      <line x1="95.00" y1="70.84" x2="84.00" y2="89.89"/>
      <line x1="117.00" y1="70.84" x2="139.00" y2="70.84"/>
      <line x1="117.00" y1="70.84" x2="128.00" y2="89.89"/>
      <line x1="117.00" y1="70.84" x2="106.00" y2="89.89"/>
      <line x1="139.00" y1="70.84" x2="161.00" y2="70.84"/>
      <line x1="139.00" y1="70.84" x2="150.00" y2="89.89"/>
      <line x1="139.00" y1="70.84" x2="128.00" y2="89.89"/>
      <line x1="161.00" y1="70.84" x2="183.00" y2="70.84"/>
      <line x1="161.00" y1="70.84" x2="172.00" y2="89.89"/>
      <line x1="161.00" y1="70.84" x2="150.00" y2="89.89"/>
      <line x1="183.00" y1="70.84" x2="205.00" y2="70.84"/>
      <line x1="183.00" y1="70.84" x2="194.00" y2="89.89"/>
      <line x1="183.00" y1="70.84" x2="172.00" y2="89.89"/>
      <line x1="205.00" y1="70.84" x2="216.00" y2="89.89"/>
      <line x1="205.00" y1="70.84" x2="194.00" y2="89.89"/>
      <line x1="40.00" y1="89.89" x2="62.00" y2="89.89"/>
      <line x1="40.00" y1="89.89" x2="51.00" y2="108.95"/>
      <line x1="40.00" y1="89.89" x2="29.00" y2="108.95"/>
      <line x1="62.00" y1="89.89" x2="84.00" y2="89.89"/>
      <line x1="62.00" y1="89.89" x2="73.00" y2="108.95"/>
      <line x1="62.00" y1="89.89" x2="51.00" y2="108.95"/>
      <line x1="84.00" y1="89.89" x2="106.00" y2="89.89"/>
      <line x1="84.00" y1="89.89" x2="95.00" y2="108.95"/>
      <line x1="84.00" y1="89.89" x2="73.00" y2="108.95"/>
      <line x1="106.00" y1="89.89" x2="128.00" y2="89.89"/>
      <line x1="106.00" y1="89.89" x2="117.00" y2="108.95"/>
      <line x1="106.00" y1="89.89" x2="95.00" y2="108.95"/>
      <line x1="128.00" y1="89.89" x2="150.00" y2="89.89"/>
      <line x1="128.00" y1="89.89" x2="139.00" y2="108.95"/>
      <line x1="128.00" y1="89.89" x2="117.00" y2="108.95"/>
      <line x1="150.00" y1="89.89" x2="172.00" y2="89.89"/>
      <line x1="150.00" y1="89.89" x2="161.00" y2="108.95"/>
      <line x1="150.00" y1="89.89" x2="139.00" y2="108.95"/>
      <line x1="172.00" y1="89.89" x2="194.00" y2="89.89"/>
      <line x1="172.00" y1="89.89" x2="183.00" y2="108.95"/>
      <line x1="172.00" y1="89.89" x2="161.00" y2="108.95"/>
      <line x1="194.00" y1="89.89" x2="216.00" y2="89.89"/>
      <line x1="194.00" y1="89.89" x2="205.00" y2="108.95"/>
      <line x1="194.00" y1="89.89" x2="183.00" y2="108.95"/>
      <line x1="216.00" y1="89.89" x2="227.00" y2="108.95"/>
      <line x1="216.00" y1="89.89" x2="205.00" y2="108.95"/>
      <line x1="29.00" y1="108.95" x2="51.00" y2="108.95"/>
      <line x1="29.00" y1="108.95" x2="40.00" y2="128.00"/>
      <line x1="29.00" y1="108.95" x2="18.00" y2="128.00"/>
      <line x1="51.00" y1="108.95" x2="73.00" y2="108.95"/>
      <line x1="51.00" y1="108.95" x2="62.00" y2="128.00"/>
      <line x1="51.00" y1="108.95" x2="40.00" y2="128.00"/>
      <line x1="73.00" y1="108.95" x2="95.00" y2="108.95"/>
      <line x1="73.00" y1="108.95" x2="84.00" y2="128.00"/>
      <line x1="73.00" y1="108.95" x2="62.00" y2="128.00"/>
      <line x1="95.00" y1="108.95" x2="117.00" y2="108.95"/>
      <line x1="95.00" y1="108.95" x2="106.00" y2="128.00"/>
      <line x1="95.00" y1="108.95" x2="84.00" y2="128.00"/>
      <line x1="117.00" y1="108.95" x2="139.00" y2="108.95"/>
      <line x1="117.00" y1="108.95" x2="128.00" y2="128.00"/>
      <line x1="117.00" y1="108.95" x2="106.00" y2="128.00"/>
      <line x1="139.00" y1="108.95" x2="161.00" y2="108.95"/>
      <line x1="139.00" y1="108.95" x2="150.00" y2="128.00"/>
      <line x1="139.00" y1="108.95" x2="128.00" y2="128.00"/>
      <line x1="161.00" y1="108.95" x2="183.00" y2="108.95"/>
      <line x1="161.00" y1="108.95" x2="172.00" y2="128.00"/>
      <line x1="161.00" y1="108.95" x2="150.00" y2="128.00"/>
      <line x1="183.00" y1="108.95" x2="205.00" y2="108.95"/>
      <line x1="183.00" y1="108.95" x2="194.00" y2="128.00"/>
      <line x1="183.00" y1="108.95" x2="172.00" y2="128.00"/>
      <line x1="205.00" y1="108.95" x2="227.00" y2="108.95"/>
      <line x1="205.00" y1="108.95" x2="216.00" y2="128.00"/>
      <line x1="205.00" y1="108.95" x2="194.00" y2="128.00"/>
      <line x1="227.00" y1="108.95" x2="238.00" y2="128.00"/>
      <line x1="227.00" y1="108.95" x2="216.00" y2="128.00"/>
      <line x1="18.00" y1="128.00" x2="40.00" y2="128.00"/>
      <line x1="18.00" y1="128.00" x2="29.00" y2="147.05"/>
      <line x1="40.00" y1="128.00" x2="62.00" y2="128.00"/>
      <line x1="40.00" y1="128.00" x2="51.00" y2="147.05"/>
      <line x1="40.00" y1="128.00" x2="29.00" y2="147.05"/>
      <line x1="62.00" y1="128.00" x2="84.00" y2="128.00"/>
      <line x1="62.00" y1="128.00" x2="73.00" y2="147.05"/>
      <line x1="62.00" y1="128.00" x2="51.00" y2="147.05"/>
      <line x1="84.00" y1="128.00" x2="106.00" y2="128.00"/>
      <line x1="84.00" y1="128.00" x2="95.00" y2="147.05"/>
      <line x1="84.00" y1="128.00" x2="73.00" y2="147.05"/>
      <line x1="106.00" y1="128.00" x2="128.00" y2="128.00"/>
      <line x1="106.00" y1="128.00" x2="117.00" y2="147.05"/>
      <line x1="106.00" y1="128.00" x2="95.00" y2="147.05"/>
      <line x1="128.00" y1="128.00" x2="150.00" y2="128.00"/>
      <line x1="128.00" y1="128.00" x2="139.00" y2="147.05"/>
      <line x1="128.00" y1="128.00" x2="117.00" y2="147.05"/>
      <line x1="150.00" y1="128.00" x2="172.00" y2="128.00"/>
      <line x1="150.00" y1="128.00" x2="161.00" y2="147.05"/>
      <line x1="150.00" y1="128.00" x2="139.00" y2="147.05"/>
      <line x1="172.00" y1="128.00" x2="194.00" y2="128.00"/>
      <line x1="172.00" y1="128.00" x2="183.00" y2="147.05"/>
      <line x1="172.00" y1="128.00" x2="161.00" y2="147.05"/>
      <line x1="194.00" y1="128.00" x2="216.00" y2="128.00"/>
      <line x1="194.00" y1="128.00" x2="205.00" y2="147.05"/>
      <line x1="194.00" y1="128.00" x2="183.00" y2="147.05"/>
      <line x1="216.00" y1="128.00" x2="238.00" y2="128.00"/>
      <line x1="216.00" y1="128.00" x2="227.00" y2="147.05"/>
      <line x1="216.00" y1="128.00" x2="205.00" y2="147.05"/>
      <line x1="238.00" y1="128.00" x2="227.00" y2="147.05"/>
      <line x1="29.00" y1="147.05" x2="51.00" y2="147.05"/>
      <line x1="29.00" y1="147.05" x2="40.00" y2="166.11"/>
      <line x1="51.00" y1="147.05" x2="73.00" y2="147.05"/>
      <line x1="51.00" y1="147.05" x2="62.00" y2="166.11"/>
      <line x1="51.00" y1="147.05" x2="40.00" y2="166.11"/>
      <line x1="73.00" y1="147.05" x2="95.00" y2="147.05"/>
      <line x1="73.00" y1="147.05" x2="84.00" y2="166.11"/>
      <line x1="73.00" y1="147.05" x2="62.00" y2="166.11"/>
      <line x1="95.00" y1="147.05" x2="117.00" y2="147.05"/>
      <line x1="95.00" y1="147.05" x2="106.00" y2="166.11"/>
      <line x1="95.00" y1="147.05" x2="84.00" y2="166.11"/>
      <line x1="117.00" y1="147.05" x2="139.00" y2="147.05"/>
      <line x1="117.00" y1="147.05" x2="128.00" y2="166.11"/>
      <line x1="117.00" y1="147.05" x2="106.00" y2="166.11"/>
      <line x1="139.00" y1="147.05" x2="161.00" y2="147.05"/>
      <line x1="139.00" y1="147.05" x2="150.00" y2="166.11"/>
      <line x1="139.00" y1="147.05" x2="128.00" y2="166.11"/>
      <line x1="161.00" y1="147.05" x2="183.00" y2="147.05"/>
      <line x1="161.00" y1="147.05" x2="172.00" y2="166.11"/>
      <line x1="161.00" y1="147.05" x2="150.00" y2="166.11"/>
      <line x1="183.00" y1="147.05" x2="205.00" y2="147.05"/>
      <line x1="183.00" y1="147.05" x2="194.00" y2="166.11"/>
      <line x1="183.00" y1="147.05" x2="172.00" y2="166.11"/>
      <line x1="205.00" y1="147.05" x2="227.00" y2="147.05"/>
      <line x1="205.00" y1="147.05" x2="216.00" y2="166.11"/>
      <line x1="205.00" y1="147.05" x2="194.00" y2="166.11"/>
      <line x1="227.00" y1="147.05" x2="216.00" y2="166.11"/>
      <line x1="40.00" y1="166.11" x2="62.00" y2="166.11"/>
      <line x1="40.00" y1="166.11" x2="51.00" y2="185.16"/>
      <line x1="62.00" y1="166.11" x2="84.00" y2="166.11"/>
      <line x1="62.00" y1="166.11" x2="73.00" y2="185.16"/>
      <line x1="62.00" y1="166.11" x2="51.00" y2="185.16"/>
      <line x1="84.00" y1="166.11" x2="106.00" y2="166.11"/>
      <line x1="84.00" y1="166.11" x2="95.00" y2="185.16"/>
      <line x1="84.00" y1="166.11" x2="73.00" y2="185.16"/>
      <line x1="106.00" y1="166.11" x2="128.00" y2="166.11"/>
      <line x1="106.00" y1="166.11" x2="117.00" y2="185.16"/>
      <line x1="106.00" y1="166.11" x2="95.00" y2="185.16"/>
      <line x1="128.00" y1="166.11" x2="150.00" y2="166.11"/>
      <line x1="128.00" y1="166.11" x2="139.00" y2="185.16"/>
      <line x1="128.00" y1="166.11" x2="117.00" y2="185.16"/>
      <line x1="150.00" y1="166.11" x2="172.00" y2="166.11"/>
      <line x1="150.00" y1="166.11" x2="161.00" y2="185.16"/>
      <line x1="150.00" y1="166.11" x2="139.00" y2="185.16"/>
      <line x1="172.00" y1="166.11" x2="194.00" y2="166.11"/>
      <line x1="172.00" y1="166.11" x2="183.00" y2="185.16"/>
      <line x1="172.00" y1="166.11" x2="161.00" y2="185.16"/>
      <line x1="194.00" y1="166.11" x2="216.00" y2="166.11"/>
      <line x1="194.00" y1="166.11" x2="205.00" y2="185.16"/>
      <line x1="194.00" y1="166.11" x2="183.00" y2="185.16"/>
      <line x1="216.00" y1="166.11" x2="205.00" y2="185.16"/>
      <line x1="51.00" y1="185.16" x2="73.00" y2="185.16"/>
      <line x1="51.00" y1="185.16" x2="62.00" y2="204.21"/>
      <line x1="73.00" y1="185.16" x2="95.00" y2="185.16"/>
      <line x1="73.00" y1="185.16" x2="84.00" y2="204.21"/>
      <line x1="73.00" y1="185.16" x2="62.00" y2="204.21"/>
      <line x1="95.00" y1="185.16" x2="117.00" y2="185.16"/>
      <line x1="95.00" y1="185.16" x2="106.00" y2="204.21"/>
      <line x1="95.00" y1="185.16" x2="84.00" y2="204.21"/>
      <line x1="117.00" y1="185.16" x2="139.00" y2="185.16"/>
      <line x1="117.00" y1="185.16" x2="128.00" y2="204.21"/>
      <line x1="117.00" y1="185.16" x2="106.00" y2="204.21"/>
      <line x1="139.00" y1="185.16" x2="161.00" y2="185.16"/>
      <line x1="139.00" y1="185.16" x2="150.00" y2="204.21"/>
      <line x1="139.00" y1="185.16" x2="128.00" y2="204.21"/>
      <line x1="161.00" y1="185.16" x2="183.00" y2="185.16"/>
      <line x1="161.00" y1="185.16" x2="172.00" y2="204.21"/>
      <line x1="161.00" y1="185.16" x2="150.00" y2="204.21"/>
      <line x1="183.00" y1="185.16" x2="205.00" y2="185.16"/>
      <line x1="183.00" y1="185.16" x2="194.00" y2="204.21"/>
      <line x1="183.00" y1="185.16" x2="172.00" y2="204.21"/>
      <line x1="205.00" y1="185.16" x2="194.00" y2="204.21"/>
      <line x1="62.00" y1="204.21" x2="84.00" y2="204.21"/>
      <line x1="62.00" y1="204.21" x2="73.00" y2="223.26"/>
      <line x1="84.00" y1="204.21" x2="106.00" y2="204.21"/>
      <line x1="84.00" y1="204.21" x2="95.00" y2="223.26"/>
      <line x1="84.00" y1="204.21" x2="73.00" y2="223.26"/>
      <line x1="106.00" y1="204.21" x2="128.00" y2="204.21"/>
      <line x1="106.00" y1="204.21" x2="117.00" y2="223.26"/>
      <line x1="106.00" y1="204.21" x2="95.00" y2="223.26"/>
      <line x1="128.00" y1="204.21" x2="150.00" y2="204.21"/>
      <line x1="128.00" y1="204.21" x2="139.00" y2="223.26"/>
      <line x1="128.00" y1="204.21" x2="117.00" y2="223.26"/>
      <line x1="150.00" y1="204.21" x2="172.00" y2="204.21"/>
      <line x1="150.00" y1="204.21" x2="161.00" y2="223.26"/>
      <line x1="150.00" y1="204.21" x2="139.00" y2="223.26"/>
      <line x1="172.00" y1="204.21" x2="194.00" y2="204.21"/>
      <line x1="172.00" y1="204.21" x2="183.00" y2="223.26"/>
      <line x1="172.00" y1="204.21" x2="161.00" y2="223.26"/>
      <line x1="194.00" y1="204.21" x2="183.00" y2="223.26"/>
      <line x1="73.00" y1="223.26" x2="95.00" y2="223.26"/>
      <line x1="95.00" y1="223.26" x2="117.00" y2="223.26"/>
      <line x1="117.00" y1="223.26" x2="139.00" y2="223.26"/>
      <line x1="139.00" y1="223.26" x2="161.00" y2="223.26"/>
      <line x1="161.00" y1="223.26" x2="183.00" y2="223.26"/>
    </g>
    <g fill="#5e5e72" opacity="0.85">
      <circle cx="73.00" cy="32.74" r="1.7"/>
      <circle cx="95.00" cy="32.74" r="1.7"/>
      <circle cx="117.00" cy="32.74" r="1.7"/>
      <circle cx="139.00" cy="32.74" r="1.7"/>
      <circle cx="161.00" cy="32.74" r="1.7"/>
      <circle cx="183.00" cy="32.74" r="1.7"/>
      <circle cx="62.00" cy="51.79" r="1.7"/>
      <circle cx="84.00" cy="51.79" r="1.7"/>
      <circle cx="106.00" cy="51.79" r="1.7"/>
      <circle cx="128.00" cy="51.79" r="1.7"/>
      <circle cx="150.00" cy="51.79" r="1.7"/>
      <circle cx="172.00" cy="51.79" r="1.7"/>
      <circle cx="194.00" cy="51.79" r="1.7"/>
      <circle cx="51.00" cy="70.84" r="1.7"/>
      <circle cx="73.00" cy="70.84" r="1.7"/>
      <circle cx="95.00" cy="70.84" r="1.7"/>
      <circle cx="117.00" cy="70.84" r="1.7"/>
      <circle cx="139.00" cy="70.84" r="1.7"/>
      <circle cx="161.00" cy="70.84" r="1.7"/>
      <circle cx="183.00" cy="70.84" r="1.7"/>
      <circle cx="205.00" cy="70.84" r="1.7"/>
      <circle cx="40.00" cy="89.89" r="1.7"/>
      <circle cx="62.00" cy="89.89" r="1.7"/>
      <circle cx="84.00" cy="89.89" r="1.7"/>
      <circle cx="106.00" cy="89.89" r="1.7"/>
      <circle cx="128.00" cy="89.89" r="1.7"/>
      <circle cx="150.00" cy="89.89" r="1.7"/>
      <circle cx="172.00" cy="89.89" r="1.7"/>
      <circle cx="194.00" cy="89.89" r="1.7"/>
      <circle cx="216.00" cy="89.89" r="1.7"/>
      <circle cx="29.00" cy="108.95" r="1.7"/>
      <circle cx="51.00" cy="108.95" r="1.7"/>
      <circle cx="73.00" cy="108.95" r="1.7"/>
      <circle cx="95.00" cy="108.95" r="1.7"/>
      <circle cx="117.00" cy="108.95" r="1.7"/>
      <circle cx="139.00" cy="108.95" r="1.7"/>
      <circle cx="161.00" cy="108.95" r="1.7"/>
      <circle cx="183.00" cy="108.95" r="1.7"/>
      <circle cx="205.00" cy="108.95" r="1.7"/>
      <circle cx="227.00" cy="108.95" r="1.7"/>
      <circle cx="18.00" cy="128.00" r="1.7"/>
      <circle cx="40.00" cy="128.00" r="1.7"/>
      <circle cx="62.00" cy="128.00" r="1.7"/>
      <circle cx="84.00" cy="128.00" r="1.7"/>
      <circle cx="106.00" cy="128.00" r="1.7"/>
      <circle cx="128.00" cy="128.00" r="1.7"/>
      <circle cx="150.00" cy="128.00" r="1.7"/>
      <circle cx="172.00" cy="128.00" r="1.7"/>
      <circle cx="194.00" cy="128.00" r="1.7"/>
      <circle cx="216.00" cy="128.00" r="1.7"/>
      <circle cx="238.00" cy="128.00" r="1.7"/>
      <circle cx="29.00" cy="147.05" r="1.7"/>
      <circle cx="51.00" cy="147.05" r="1.7"/>
      <circle cx="73.00" cy="147.05" r="1.7"/>
      <circle cx="95.00" cy="147.05" r="1.7"/>
      <circle cx="117.00" cy="147.05" r="1.7"/>
      <circle cx="139.00" cy="147.05" r="1.7"/>
      <circle cx="161.00" cy="147.05" r="1.7"/>
      <circle cx="183.00" cy="147.05" r="1.7"/>
      <circle cx="205.00" cy="147.05" r="1.7"/>
      <circle cx="227.00" cy="147.05" r="1.7"/>
      <circle cx="40.00" cy="166.11" r="1.7"/>
      <circle cx="62.00" cy="166.11" r="1.7"/>
      <circle cx="84.00" cy="166.11" r="1.7"/>
      <circle cx="106.00" cy="166.11" r="1.7"/>
      <circle cx="128.00" cy="166.11" r="1.7"/>
      <circle cx="150.00" cy="166.11" r="1.7"/>
      <circle cx="172.00" cy="166.11" r="1.7"/>
      <circle cx="194.00" cy="166.11" r="1.7"/>
      <circle cx="216.00" cy="166.11" r="1.7"/>
      <circle cx="51.00" cy="185.16" r="1.7"/>
      <circle cx="73.00" cy="185.16" r="1.7"/>
      <circle cx="95.00" cy="185.16" r="1.7"/>
      <circle cx="117.00" cy="185.16" r="1.7"/>
      <circle cx="139.00" cy="185.16" r="1.7"/>
      <circle cx="161.00" cy="185.16" r="1.7"/>
      <circle cx="183.00" cy="185.16" r="1.7"/>
      <circle cx="205.00" cy="185.16" r="1.7"/>
      <circle cx="62.00" cy="204.21" r="1.7"/>
      <circle cx="84.00" cy="204.21" r="1.7"/>
      <circle cx="106.00" cy="204.21" r="1.7"/>
      <circle cx="128.00" cy="204.21" r="1.7"/>
      <circle cx="150.00" cy="204.21" r="1.7"/>
      <circle cx="172.00" cy="204.21" r="1.7"/>
      <circle cx="194.00" cy="204.21" r="1.7"/>
      <circle cx="73.00" cy="223.26" r="1.7"/>
      <circle cx="95.00" cy="223.26" r="1.7"/>
      <circle cx="117.00" cy="223.26" r="1.7"/>
      <circle cx="139.00" cy="223.26" r="1.7"/>
      <circle cx="161.00" cy="223.26" r="1.7"/>
      <circle cx="183.00" cy="223.26" r="1.7"/>
    </g>
  </g>

  <!-- Colored highlighted nodes with a soft glow halo. -->
  <g filter="url(#glow)">
    <circle cx="172.00" cy="70.84" r="6.5" fill="#ff3b5c"/>
    <circle cx="161.00" cy="89.89" r="6.5" fill="#ffcc1f"/>
    <circle cx="139.00" cy="108.95" r="6.5" fill="#33d97a"/>
    <circle cx="84.00" cy="128.00" r="6.5" fill="#3aafff"/>
    <circle cx="73.00" cy="166.11" r="6.5" fill="#9145ff"/>
    <circle cx="95.00" cy="185.16" r="6.5" fill="#ff3aac"/>
  </g>

  <!-- Center hex: hollow, with a thick white border. -->
  <polygon points="147.05,117.00 147.05,139.00 128.00,150.00 108.95,139.00 108.95,117.00 128.00,106.00" fill="#0a0a14" stroke="#ffffff" stroke-width="3.5" stroke-linejoin="round"/>
</svg>
